<svg width="24" height="24" viewBox="0 0 24 24" fill="none" xmlns="http://www.w3.org/2000/svg">
<g clip-path="url(#clip0_12_105)">
<path d="M9.28572 17.5543V13.1657H6.42857L10.7143 6.58286V10.9714H13.5714L9.28572 17.5543ZM2.85714 24.1371C2.07143 24.1371 1.39881 23.9223 0.839286 23.4926C0.279762 23.0629 0 22.5463 0 21.9429V2.19429C0 1.59086 0.279762 1.07429 0.839286 0.644571C1.39881 0.214857 2.07143 0 2.85714 0H17.1429C17.9286 0 18.6012 0.214857 19.1607 0.644571C19.7202 1.07429 20 1.59086 20 2.19429V21.9429C20 22.5463 19.7202 23.0629 19.1607 23.4926C18.6012 23.9223 17.9286 24.1371 17.1429 24.1371H2.85714ZM2.85714 20.8457V21.9429H17.1429V20.8457H2.85714ZM2.85714 18.6514H17.1429V5.48571H2.85714V18.6514ZM2.85714 3.29143H17.1429V2.19429H2.85714V3.29143Z" fill="#E8EAED"/>
</g>
<defs>
<clipPath id="clip0_12_105">
<rect width="24" height="24" fill="white"/>
</clipPath>
</defs>
</svg>