<svg width="24" height="24" viewBox="0 0 24 24" fill="none" xmlns="http://www.w3.org/2000/svg">
<g clip-path="url(#clip0_12_109)">
<path d="M3.33335 24.2C2.92409 24.2 2.58103 24.0786 2.30418 23.8358C2.02733 23.5931 1.8889 23.2922 1.8889 22.9333V20.3367C1.45557 19.9144 1.1065 19.4447 0.84168 18.9275C0.576865 18.4103 0.444458 17.8456 0.444458 17.2333V5.2C0.444458 3.44778 1.37131 2.16528 3.22501 1.3525C5.07872 0.53972 8.00372 0.133331 12 0.133331C16.1408 0.133331 19.1019 0.523887 20.8833 1.305C22.6648 2.08611 23.5556 3.38444 23.5556 5.2V17.2333C23.5556 17.8456 23.4232 18.4103 23.1583 18.9275C22.8935 19.4447 22.5445 19.9144 22.1111 20.3367V22.9333C22.1111 23.2922 21.9727 23.5931 21.6958 23.8358C21.419 24.0786 21.0759 24.2 20.6667 24.2H19.2222C18.813 24.2 18.4699 24.0786 18.1931 23.8358C17.9162 23.5931 17.7778 23.2922 17.7778 22.9333V21.6667H6.22224V22.9333C6.22224 23.2922 6.08381 23.5931 5.80696 23.8358C5.53011 24.0786 5.18705 24.2 4.77779 24.2H3.33335ZM12.0722 3.93333H20.1611H3.98335H12.0722ZM17.7778 12.8H3.33335H20.6667H17.7778ZM3.33335 10.2667H20.6667V6.46666H3.33335V10.2667ZM6.94446 17.8667C7.54631 17.8667 8.05788 17.6819 8.47918 17.3125C8.90048 16.9431 9.11112 16.4944 9.11112 15.9667C9.11112 15.4389 8.90048 14.9903 8.47918 14.6208C8.05788 14.2514 7.54631 14.0667 6.94446 14.0667C6.34261 14.0667 5.83103 14.2514 5.40974 14.6208C4.98844 14.9903 4.77779 15.4389 4.77779 15.9667C4.77779 16.4944 4.98844 16.9431 5.40974 17.3125C5.83103 17.6819 6.34261 17.8667 6.94446 17.8667ZM17.0556 17.8667C17.6574 17.8667 18.169 17.6819 18.5903 17.3125C19.0116 16.9431 19.2222 16.4944 19.2222 15.9667C19.2222 15.4389 19.0116 14.9903 18.5903 14.6208C18.169 14.2514 17.6574 14.0667 17.0556 14.0667C16.4537 14.0667 15.9421 14.2514 15.5208 14.6208C15.0996 14.9903 14.8889 15.4389 14.8889 15.9667C14.8889 16.4944 15.0996 16.9431 15.5208 17.3125C15.9421 17.6819 16.4537 17.8667 17.0556 17.8667ZM3.98335 3.93333H20.1611C19.8 3.57444 19.0236 3.27361 17.832 3.03083C16.6403 2.78805 14.7204 2.66666 12.0722 2.66666C9.49631 2.66666 7.61251 2.79861 6.42085 3.0625C5.22918 3.32639 4.41668 3.61666 3.98335 3.93333ZM6.22224 19.1333H17.7778C18.5722 19.1333 19.2523 18.8853 19.8181 18.3892C20.3838 17.8931 20.6667 17.2967 20.6667 16.6V12.8H3.33335V16.6C3.33335 17.2967 3.61622 17.8931 4.18196 18.3892C4.7477 18.8853 5.42779 19.1333 6.22224 19.1333Z" fill="white"/>
</g>
<defs>
<clipPath id="clip0_12_109">
<rect width="24" height="24" fill="white"/>
</clipPath>
</defs>
</svg>