<svg width="44" height="31" viewBox="0 0 44 31" fill="none" xmlns="http://www.w3.org/2000/svg">
<g clip-path="url(#clip0_11_11)">
<path d="M25.9111 17.3788C24.2815 17.3788 22.8963 16.8308 21.7556 15.7348C20.6148 14.6389 20.0444 13.3081 20.0444 11.7424C20.0444 10.1768 20.6148 8.84596 21.7556 7.75C22.8963 6.65404 24.2815 6.10606 25.9111 6.10606C27.5407 6.10606 28.9259 6.65404 30.0667 7.75C31.2074 8.84596 31.7778 10.1768 31.7778 11.7424C31.7778 13.3081 31.2074 14.6389 30.0667 15.7348C28.9259 16.8308 27.5407 17.3788 25.9111 17.3788ZM12.2222 23.0152C11.1467 23.0152 10.2259 22.6472 9.46 21.9114C8.69408 21.1755 8.31111 20.2909 8.31111 19.2576V4.22727C8.31111 3.19394 8.69408 2.30934 9.46 1.57348C10.2259 0.837625 11.1467 0.469696 12.2222 0.469696H39.6C40.6756 0.469696 41.5963 0.837625 42.3622 1.57348C43.1282 2.30934 43.5111 3.19394 43.5111 4.22727V19.2576C43.5111 20.2909 43.1282 21.1755 42.3622 21.9114C41.5963 22.6472 40.6756 23.0152 39.6 23.0152H12.2222ZM16.1333 19.2576H35.6889C35.6889 18.2242 36.0719 17.3396 36.8378 16.6038C37.6037 15.8679 38.5244 15.5 39.6 15.5V7.98485C38.5244 7.98485 37.6037 7.61692 36.8378 6.88106C36.0719 6.1452 35.6889 5.26061 35.6889 4.22727H16.1333C16.1333 5.26061 15.7504 6.1452 14.9844 6.88106C14.2185 7.61692 13.2978 7.98485 12.2222 7.98485V15.5C13.2978 15.5 14.2185 15.8679 14.9844 16.6038C15.7504 17.3396 16.1333 18.2242 16.1333 19.2576ZM37.6445 30.5303H4.4C3.32445 30.5303 2.40371 30.1624 1.63778 29.4265C0.871855 28.6907 0.488892 27.8061 0.488892 26.7727V6.10606H4.4V26.7727H37.6445V30.5303Z" fill="white"/>
</g>
<defs>
<clipPath id="clip0_11_11">
<rect width="44" height="31" fill="white"/>
</clipPath>
</defs>
</svg>