<svg width="52" height="45" viewBox="0 0 52 45" fill="none" xmlns="http://www.w3.org/2000/svg">
<g clip-path="url(#clip0_12_33)">
<path d="M17.3333 45.5769C15.9182 45.5769 14.7068 45.012 13.6991 43.8822C12.6914 42.7524 12.1875 41.3942 12.1875 39.8077V31.1538H19.9062V24.6635C18.4054 24.5673 16.9796 24.1947 15.6288 23.5457C14.278 22.8966 13.0451 21.9231 11.9302 20.625V17.4519H8.97135L0.609375 8.07692C2.15313 5.86538 4.06137 4.30288 6.33411 3.38942C8.60686 2.47596 10.901 2.01923 13.2167 2.01923C14.3745 2.01923 15.5001 2.11538 16.5936 2.30769C17.6871 2.5 18.7913 2.86057 19.9062 3.38942V-0.576927H50.7812V36.9231C50.7812 39.3269 50.0308 41.3702 48.5299 43.0529C47.0291 44.7356 45.2066 45.5769 43.0625 45.5769H17.3333ZM25.0521 31.1538H40.4896V36.9231C40.4896 37.7404 40.7362 38.4255 41.2293 38.9784C41.7224 39.5312 42.3335 39.8077 43.0625 39.8077C43.7915 39.8077 44.4026 39.5312 44.8957 38.9784C45.3888 38.4255 45.6354 37.7404 45.6354 36.9231V5.1923H25.0521V6.92307L40.4896 24.2308V28.2692H36.8875L29.5547 20.0481L29.0401 20.625C28.4398 21.2981 27.8072 21.899 27.1426 22.4279C26.4779 22.9567 25.7811 23.3654 25.0521 23.6538V31.1538ZM11.1583 11.6827H17.076V17.8846C17.5906 18.2692 18.1266 18.5336 18.6841 18.6779C19.2416 18.8221 19.8205 18.8942 20.4208 18.8942C21.4071 18.8942 22.2969 18.726 23.0902 18.3894C23.8836 18.0529 24.6661 17.4519 25.438 16.5865L25.9526 16.0096L22.3505 11.9711C21.1069 10.5769 19.7133 9.53125 18.1695 8.83413C16.6258 8.13702 14.9748 7.78846 13.2167 7.78846C12.359 7.78846 11.5443 7.86057 10.7724 8.0048C10.0005 8.14903 9.22865 8.36538 8.45677 8.65384L11.1583 11.6827ZM35.3438 36.9231H17.3333V39.8077H35.7297C35.601 39.375 35.5046 38.9183 35.4402 38.4375C35.3759 37.9567 35.3438 37.4519 35.3438 36.9231Z" fill="white"/>
</g>
<defs>
<clipPath id="clip0_12_33">
<rect width="52" height="45" fill="white"/>
</clipPath>
</defs>
</svg>