<svg width="43" height="44" viewBox="0 0 43 44" fill="none" xmlns="http://www.w3.org/2000/svg">
<g clip-path="url(#clip0_11_31)">
<path d="M21.5 43.5119C18.4707 43.5119 15.624 42.9341 12.9597 41.7785C10.2954 40.6228 7.97785 39.0545 6.00702 37.0734C4.03618 35.0924 2.47594 32.7628 1.32629 30.0846C0.176633 27.4065 -0.398193 24.545 -0.398193 21.5C-0.398193 18.455 0.176633 15.5935 1.32629 12.9154C2.47594 10.2372 4.03618 7.90765 6.00702 5.92658C7.97785 3.94551 10.2954 2.37716 12.9597 1.22154C15.624 0.0659106 18.4707 -0.511902 21.5 -0.511902C24.5292 -0.511902 27.376 0.0659106 30.0402 1.22154C32.7045 2.37716 35.0221 3.94551 36.9929 5.92658C38.9637 7.90765 40.524 10.2372 41.6736 12.9154C42.8233 15.5935 43.3981 18.455 43.3981 21.5C43.3981 24.545 42.8233 27.4065 41.6736 30.0846C40.524 32.7628 38.9637 35.0924 36.9929 37.0734C35.0221 39.0545 32.7045 40.6228 30.0402 41.7785C27.376 42.9341 24.5292 43.5119 21.5 43.5119ZM21.5 33.6065C23.1423 31.9557 24.6022 30.2497 25.8796 28.4888C26.9745 26.9846 27.9782 25.3337 28.8906 23.5361C29.803 21.7385 30.2592 19.9592 30.2592 18.1982C30.2592 15.7769 29.4015 13.7041 27.6862 11.9799C25.9708 10.2556 23.9088 9.39346 21.5 9.39346C19.0912 9.39346 17.0291 10.2556 15.3137 11.9799C13.5984 13.7041 12.7407 15.7769 12.7407 18.1982C12.7407 19.9592 13.1969 21.7385 14.1093 23.5361C15.0218 25.3337 16.0254 26.9846 17.1203 28.4888C18.3977 30.2497 19.8576 31.9557 21.5 33.6065ZM21.5 21.5C20.5875 21.5 19.812 21.179 19.1733 20.537C18.5346 19.895 18.2152 19.1154 18.2152 18.1982C18.2152 17.2811 18.5346 16.5015 19.1733 15.8595C19.812 15.2174 20.5875 14.8964 21.5 14.8964C22.4124 14.8964 23.1879 15.2174 23.8266 15.8595C24.4653 16.5015 24.7847 17.2811 24.7847 18.1982C24.7847 19.1154 24.4653 19.895 23.8266 20.537C23.1879 21.179 22.4124 21.5 21.5 21.5Z" fill="white"/>
</g>
<defs>
<clipPath id="clip0_11_31">
<rect width="43" height="44" fill="white"/>
</clipPath>
</defs>
</svg>