<svg width="24" height="24" viewBox="0 0 24 24" fill="none" xmlns="http://www.w3.org/2000/svg">
<g clip-path="url(#clip0_12_103)">
<path d="M3.42857 24V22.8C2.48571 22.8 1.67857 22.565 1.00714 22.095C0.335714 21.625 0 21.06 0 20.4V7.2C0 6.54 0.335714 5.975 1.00714 5.505C1.67857 5.035 2.48571 4.8 3.42857 4.8H6.85714V1.2C6.85714 0.86 7.02143 0.575 7.35 0.345C7.67857 0.115 8.08571 0 8.57143 0H15.4286C15.9143 0 16.3214 0.115 16.65 0.345C16.9786 0.575 17.1429 0.86 17.1429 1.2V4.8H20.5714C21.5143 4.8 22.3214 5.035 22.9929 5.505C23.6643 5.975 24 6.54 24 7.2V20.4C24 21.06 23.6643 21.625 22.9929 22.095C22.3214 22.565 21.5143 22.8 20.5714 22.8V24H17.1429V22.8H6.85714V24H3.42857ZM10.2857 4.8H13.7143V2.4H10.2857V4.8ZM12 12C13.5143 12 14.9929 11.865 16.4357 11.595C17.8786 11.325 19.2571 10.92 20.5714 10.38V7.2H3.42857V10.38C4.74286 10.92 6.12143 11.325 7.56429 11.595C9.00714 11.865 10.4857 12 12 12ZM10.2857 15.6V14.34C9.08571 14.24 7.91429 14.09 6.77143 13.89C5.62857 13.69 4.51429 13.42 3.42857 13.08V20.4H20.5714V13.08C19.4857 13.42 18.3714 13.69 17.2286 13.89C16.0857 14.09 14.9143 14.24 13.7143 14.34V15.6H10.2857Z" fill="#E8EAED"/>
</g>
<defs>
<clipPath id="clip0_12_103">
<rect width="24" height="24" fill="white"/>
</clipPath>
</defs>
</svg>