<svg width="24" height="24" viewBox="0 0 24 24" fill="none" xmlns="http://www.w3.org/2000/svg">
<g clip-path="url(#clip0_12_111)">
<path d="M3 24.1622C2.175 24.1622 1.46875 23.924 0.88125 23.4476C0.29375 22.9713 0 22.3987 0 21.7297V7.13514C0 6.46622 0.29375 5.89359 0.88125 5.41724C1.46875 4.94089 2.175 4.70271 3 4.70271H6C6 3.36487 6.5875 2.2196 7.7625 1.2669C8.9375 0.314196 10.35 -0.162155 12 -0.162155C13.65 -0.162155 15.0625 0.314196 16.2375 1.2669C17.4125 2.2196 18 3.36487 18 4.70271H21C21.825 4.70271 22.5312 4.94089 23.1188 5.41724C23.7063 5.89359 24 6.46622 24 7.13514V21.7297C24 22.3987 23.7063 22.9713 23.1188 23.4476C22.5312 23.924 21.825 24.1622 21 24.1622H3ZM3 21.7297H21V7.13514H18V9.56757C18 9.91217 17.8563 10.201 17.5688 10.4341C17.2812 10.6672 16.925 10.7838 16.5 10.7838C16.075 10.7838 15.7188 10.6672 15.4313 10.4341C15.1438 10.201 15 9.91217 15 9.56757V7.13514H9V9.56757C9 9.91217 8.85625 10.201 8.56875 10.4341C8.28125 10.6672 7.925 10.7838 7.5 10.7838C7.075 10.7838 6.71875 10.6672 6.43125 10.4341C6.14375 10.201 6 9.91217 6 9.56757V7.13514H3V21.7297ZM9 4.70271H15C15 4.03379 14.7063 3.46116 14.1188 2.9848C13.5313 2.50845 12.825 2.27028 12 2.27028C11.175 2.27028 10.4688 2.50845 9.88125 2.9848C9.29375 3.46116 9 4.03379 9 4.70271Z" fill="white"/>
</g>
<defs>
<clipPath id="clip0_12_111">
<rect width="24" height="24" fill="white"/>
</clipPath>
</defs>
</svg>