<svg width="45" height="35" viewBox="0 0 45 35" fill="none" xmlns="http://www.w3.org/2000/svg">
<g clip-path="url(#clip0_11_13)">
<path d="M31.3235 16.7944C31.9485 16.7944 32.4724 16.6185 32.8952 16.2669C33.318 15.9152 33.5294 15.4795 33.5294 14.9597C33.5294 14.4399 33.318 14.0041 32.8952 13.6525C32.4724 13.3008 31.9485 13.125 31.3235 13.125C30.6985 13.125 30.1746 13.3008 29.7518 13.6525C29.329 14.0041 29.1176 14.4399 29.1176 14.9597C29.1176 15.4795 29.329 15.9152 29.7518 16.2669C30.1746 16.6185 30.6985 16.7944 31.3235 16.7944ZM13.6765 13.125H24.7059V9.45564H13.6765V13.125ZM5.95587 35.1411C4.70587 31.6552 3.47425 28.177 2.26101 24.7064C1.04778 21.2358 0.441162 17.6811 0.441162 14.0423C0.441162 11.2292 1.61763 8.84409 3.97057 6.8871C6.32351 4.93011 9.19116 3.95161 12.5735 3.95161H23.6029C24.6691 2.78965 25.9651 1.8876 27.4908 1.24546C29.0165 0.603326 30.6617 0.282257 32.4265 0.282257C33.3456 0.282257 34.1268 0.549814 34.7702 1.08493C35.4136 1.62004 35.7353 2.26982 35.7353 3.03427C35.7353 3.21774 35.7077 3.40121 35.6526 3.58468C35.5974 3.76814 35.5331 3.93632 35.4595 4.08921C35.3125 4.42557 35.1746 4.76957 35.0459 5.12122C34.9173 5.47287 34.8162 5.83216 34.7426 6.19909L39.761 10.373H44.5588V23.1699L38.3272 24.8669L34.6323 35.1411H22.5V31.4718H18.0882V35.1411H5.95587ZM9.26469 31.4718H13.6765V27.8024H26.9117V31.4718H31.3235L34.7426 22.0232L40.147 20.5096V14.0423H37.9412L30.2206 7.62097C30.2206 7.00941 30.2665 6.42078 30.3584 5.85509C30.4504 5.2894 30.5882 4.71606 30.772 4.13508C29.7059 4.3797 28.7684 4.80015 27.9595 5.39642C27.1507 5.99269 26.5625 6.73421 26.1948 7.62097H12.5735C10.4412 7.62097 8.62131 8.24782 7.11396 9.50151C5.6066 10.7552 4.85293 12.2688 4.85293 14.0423C4.85293 17.039 5.34925 19.9668 6.3419 22.8259C7.33454 25.6849 8.30881 28.5669 9.26469 31.4718Z" fill="white"/>
</g>
<defs>
<clipPath id="clip0_11_13">
<rect width="45" height="35" fill="white"/>
</clipPath>
</defs>
</svg>