<svg width="24" height="24" viewBox="0 0 24 24" fill="none" xmlns="http://www.w3.org/2000/svg">
<g clip-path="url(#clip0_12_101)">
<path d="M20.0384 25.6833L18.4231 23.49L19.6923 21.7667H11.1538C10.9231 22.7067 10.5096 23.4639 9.91344 24.0383C9.31728 24.6128 8.65382 24.9 7.92305 24.9C7.19228 24.9 6.53363 24.6128 5.94709 24.0383C5.36055 23.4639 4.94228 22.7067 4.69228 21.7667H3.30767C2.34613 21.7667 1.52882 21.3097 0.855746 20.3958C0.182669 19.482 -0.15387 18.3722 -0.15387 17.0667V7.66668H6.76921V2.96668H-0.15387V-0.166656H14.8461C15.4807 -0.166656 16.024 0.140149 16.4759 0.75376C16.9279 1.36737 17.1538 2.10501 17.1538 2.96668V18.6333H19.6346L18.4231 16.9883L20.0384 14.7167L24.0769 20.2L20.0384 25.6833ZM9.0769 7.66668H14.8461V2.96668H9.0769V7.66668ZM7.92305 21.7667C8.24998 21.7667 8.52401 21.6165 8.74517 21.3163C8.96632 21.016 9.0769 20.6439 9.0769 20.2C9.0769 19.7561 8.96632 19.384 8.74517 19.0838C8.52401 18.7835 8.24998 18.6333 7.92305 18.6333C7.59613 18.6333 7.32209 18.7835 7.10094 19.0838C6.87978 19.384 6.76921 19.7561 6.76921 20.2C6.76921 20.6439 6.87978 21.016 7.10094 21.3163C7.32209 21.6165 7.59613 21.7667 7.92305 21.7667ZM4.69228 18.6333C4.94228 17.6933 5.36055 16.9361 5.94709 16.3617C6.53363 15.7872 7.19228 15.5 7.92305 15.5C8.65382 15.5 9.31728 15.7872 9.91344 16.3617C10.5096 16.9361 10.9231 17.6933 11.1538 18.6333H14.8461V10.8H2.15382V17.0667C2.15382 17.5106 2.2644 17.8826 2.48555 18.1829C2.70671 18.4832 2.98075 18.6333 3.30767 18.6333H4.69228ZM4.69228 10.8H2.15382H14.8461H4.69228Z" fill="white"/>
</g>
<defs>
<clipPath id="clip0_12_101">
<rect width="24" height="24" fill="white"/>
</clipPath>
</defs>
</svg>